<svg version="1.1" id="Layer_1" xmlns="http://www.w3.org/2000/svg" xmlns:xlink="http://www.w3.org/1999/xlink" x="0px" y="0px"
	 width="100%" viewBox="0 0 415 247" enable-background="new 0 0 415 247" xml:space="preserve">
<path fill="#F5F6F8" opacity="1.000000" stroke="none" 
	d="
M311.000000,248.000000 
	C207.333374,248.000000 104.166740,248.000000 1.000083,248.000000 
	C1.000055,165.666733 1.000055,83.333466 1.000028,1.000149 
	C139.333221,1.000100 277.666443,1.000100 415.999756,1.000050 
	C415.999817,83.333183 415.999817,165.666367 415.999908,247.999786 
	C381.166656,248.000000 346.333344,248.000000 311.000000,248.000000 
M91.308731,120.033607 
	C90.735840,120.627319 90.162949,121.221039 89.265228,121.891609 
	C89.265228,121.891609 89.031715,122.130142 88.411224,122.159706 
	C87.811211,122.700249 87.211189,123.240791 86.038521,123.949188 
	C85.722321,124.183182 85.406120,124.417175 84.491463,124.682693 
	C83.557335,125.406227 82.623207,126.129761 81.337021,126.914452 
	C81.337021,126.914452 81.056274,127.135513 80.316490,127.151276 
	C77.898537,128.170914 75.480576,129.190567 72.357147,130.222046 
	C71.927757,130.400284 71.498367,130.578522 70.374023,130.565536 
	C67.987907,131.793503 64.644997,132.415955 63.407707,134.371002 
	C60.511044,138.947998 58.623791,144.163849 56.168789,149.228714 
	C56.168789,149.228714 56.171162,149.420761 55.692593,149.752380 
	C55.236668,150.852936 54.780739,151.953476 53.932171,153.648743 
	C49.718304,161.899338 44.998718,169.952850 43.726151,179.445251 
	C64.330338,163.023331 82.827026,144.873047 96.371193,121.722633 
	C96.598770,121.525406 96.682297,121.279274 96.821671,120.850418 
	C96.821671,120.850418 96.870514,120.614883 97.426369,120.285820 
	C98.819214,116.828735 100.212059,113.371643 101.925179,109.170921 
	C102.504730,107.188713 102.659683,104.934082 103.729584,103.266487 
	C114.286407,86.812355 113.777832,69.727379 106.915489,52.235058 
	C106.534721,51.264450 105.668961,50.484104 104.857147,49.381958 
	C104.223579,50.289738 103.752739,50.775204 103.499062,51.355591 
	C97.686592,64.654175 88.971298,75.909210 78.755905,86.032341 
	C66.250267,98.425011 56.262405,112.626678 47.949863,128.058701 
	C46.973820,129.870697 46.666855,132.043137 45.720661,133.997543 
	C45.811234,133.991531 45.901810,133.985504 46.752209,133.962463 
	C54.820297,131.347198 62.837315,128.558502 70.970200,126.163239 
	C79.913216,123.529350 87.829849,119.262306 94.821030,113.075836 
	C96.520309,111.572151 99.019051,110.971916 101.033699,110.648201 
	C98.748451,113.128067 96.463211,115.607933 94.069954,118.076286 
	C94.069954,118.076286 94.080086,118.184448 93.494644,118.276154 
	C92.972382,118.821060 92.450119,119.365967 92.001930,119.984222 
	C92.001930,119.984222 91.925995,119.918900 91.308731,120.033607 
M142.210907,47.620140 
	C143.009338,48.290695 143.807770,48.961250 145.180069,50.113777 
	C144.996719,48.557465 144.905289,47.781269 144.966324,46.191616 
	C144.889114,44.823658 144.811905,43.455696 144.931808,41.397503 
	C144.915848,40.921490 144.899887,40.445473 145.278183,39.411461 
	C148.411972,35.714371 151.002487,31.269709 154.811432,28.501657 
	C160.056549,24.689892 166.222580,22.145344 172.112122,18.948023 
	C172.112122,18.948023 172.091858,19.204657 172.091858,19.204657 
	C172.091858,19.204657 171.984055,19.012102 171.881180,18.322411 
	C163.908096,17.601852 157.362122,21.596859 150.225403,24.787245 
	C150.225403,24.787245 149.994614,25.041695 149.306137,25.075432 
	C147.873398,25.731792 146.440674,26.388153 144.319565,27.027176 
	C143.885239,27.166361 143.450928,27.305548 142.157547,27.367071 
	C140.442444,27.259373 138.727356,27.151674 136.457626,26.570137 
	C136.039719,26.322920 135.621826,26.075701 135.328247,25.818789 
	C135.328247,25.818789 135.357239,25.953215 134.715790,25.431507 
	C124.235847,19.385660 114.453575,21.591764 109.483032,31.530138 
	C109.299583,37.432259 112.495377,32.362244 114.645668,33.024105 
	C115.099724,32.948601 115.553772,32.873093 116.685493,32.981342 
	C118.043983,33.058514 119.402473,33.135685 121.462845,33.650379 
	C122.262970,33.860264 123.063095,34.070152 123.890938,34.632309 
	C123.890938,34.632309 124.020645,34.961315 123.621010,35.503609 
	C122.988144,35.726143 122.355286,35.948681 120.846634,36.136139 
	C118.523483,36.114723 116.176918,35.871670 113.881622,36.114040 
	C107.363373,36.802326 104.688828,40.793903 106.991592,46.898884 
	C108.445526,50.753471 110.422607,54.482426 112.642143,57.963531 
	C120.330406,70.021729 125.103363,83.239670 128.709869,96.957039 
	C129.364136,99.445580 129.992096,101.941048 130.737793,104.844391 
	C137.713379,97.379181 145.605026,76.893463 146.158936,66.337143 
	C146.560318,58.687801 143.865570,52.408703 138.475952,47.181778 
	C136.349075,45.119102 134.045593,43.238525 132.136429,40.740440 
	C132.686066,40.504601 133.235687,40.268757 134.120270,40.508675 
	C134.800018,40.831371 135.479752,41.154068 136.306061,41.705368 
	C136.306061,41.705368 136.548492,41.827690 136.889328,42.308239 
	C138.587952,43.881504 140.286575,45.454769 141.995544,47.000767 
	C141.995544,47.000767 141.972473,47.014893 142.210907,47.620140 
M315.075348,94.073479 
	C315.075348,94.073479 315.104065,94.106354 315.813568,94.169647 
	C319.010223,91.593925 322.726807,89.440842 325.259338,86.325287 
	C327.865234,83.119476 330.076843,79.166786 331.079132,75.192421 
	C332.313446,70.298157 328.283569,67.579849 323.814178,70.084396 
	C321.331146,71.475838 319.482697,73.999710 316.832886,76.512192 
	C315.222260,80.008438 313.611664,83.504692 311.714264,87.631187 
	C311.246185,89.420944 310.778076,91.210693 309.950195,93.469307 
	C309.623260,93.959221 309.296356,94.449127 308.263306,95.081985 
	C305.534241,96.393906 302.805206,97.705833 299.256836,99.050148 
	C293.355133,99.765198 287.468719,100.729172 281.545471,101.093971 
	C278.418945,101.286530 276.127502,99.628838 276.418762,95.857765 
	C276.484650,95.004555 276.056976,94.113235 275.822845,93.092789 
	C248.286545,108.936241 219.702652,113.899651 188.524124,105.349136 
	C193.164413,99.299850 197.849930,94.577469 200.860596,88.957809 
	C206.003616,79.357857 213.015076,74.918823 223.983673,76.805649 
	C226.664795,77.266853 229.655685,76.643761 232.371964,75.978996 
	C235.000809,75.335648 237.459351,73.996414 240.456268,73.085861 
	C246.046356,71.475784 250.357742,68.259026 252.830475,62.910843 
	C255.425308,57.298603 253.248871,51.422901 247.230927,50.416271 
	C242.378647,49.604622 236.772507,49.739273 232.222839,51.414700 
	C222.534668,54.982391 216.186859,62.990097 209.610321,71.638298 
	C207.705261,72.351082 205.855209,73.392708 203.886017,73.722206 
	C192.765533,75.582977 181.438324,76.574387 170.560577,79.348320 
	C165.897537,80.537445 161.564697,84.794922 158.171799,88.624054 
	C155.508530,91.629730 155.290268,96.082520 158.695984,101.004913 
	C159.316315,98.816872 159.960159,97.768036 159.822144,96.834824 
	C158.912735,90.685905 162.247299,86.909134 167.109909,84.417923 
	C178.669159,78.495903 191.283264,78.036201 204.408173,78.075752 
	C198.620834,86.499786 192.426407,94.401840 185.961578,102.076111 
	C185.299789,102.861717 183.006149,102.431145 181.490738,102.307533 
	C177.880646,102.013039 174.202652,100.962059 170.713928,101.428101 
	C168.926147,101.666931 166.304886,104.452576 166.225311,106.186569 
	C166.147919,107.873108 168.805145,111.134148 170.315170,111.166023 
	C174.431763,111.252937 178.576843,110.000687 182.710251,109.276817 
	C184.544281,108.955627 186.621735,107.896576 188.174347,108.414528 
	C213.022964,116.703773 237.143753,113.026100 260.953827,104.220100 
	C264.948395,102.742729 268.719604,100.661415 272.802582,98.762154 
	C275.052826,103.833344 279.454895,105.225319 284.053619,104.663200 
	C290.418121,103.885246 296.666992,102.161324 303.673187,100.783684 
	C305.463959,100.110779 307.254700,99.437874 309.042267,99.586037 
	C309.062866,100.404442 309.083466,101.222847 308.799835,102.756096 
	C308.789917,105.749161 307.110779,106.647774 304.332886,106.765678 
	C302.540558,106.841751 300.778778,107.638077 299.003326,108.111618 
	C299.124329,108.712471 299.245331,109.313332 299.366333,109.914185 
	C302.170258,109.914185 304.974182,109.914185 307.721252,109.914185 
	C308.276947,115.923241 308.775970,121.319687 309.275024,126.716125 
	C309.939667,126.705933 310.604309,126.695740 311.268951,126.685547 
	C311.522369,125.237366 311.978912,123.790466 311.988159,122.340736 
	C312.009277,119.013596 311.623260,115.674515 311.808075,112.362907 
	C311.871521,111.226074 312.922882,109.471466 313.893219,109.162682 
	C323.160004,106.213692 332.506317,103.514572 341.896362,100.723946 
	C342.597290,105.446579 346.453522,106.728165 351.230774,106.678490 
	C361.572754,106.570946 371.277344,103.800621 380.630035,99.597252 
	C382.145538,98.916138 383.706268,98.237228 385.028564,97.262268 
	C385.789581,96.701157 386.113861,95.547737 386.634766,94.660942 
	C385.640472,94.523964 384.602722,94.147453 383.664093,94.317574 
	C382.730530,94.486771 381.916077,95.246117 381.015869,95.676575 
	C371.442749,100.254333 361.465485,103.282867 350.749054,103.171837 
	C345.783813,103.120392 344.944336,101.746017 346.384735,98.110130 
	C350.207214,97.330948 353.737000,97.113174 356.760742,95.762573 
	C358.078247,95.174095 359.082916,92.157043 358.835876,90.443939 
	C358.688263,89.420372 355.596466,87.830658 354.256256,88.172752 
	C351.320312,88.922195 348.258148,90.265251 345.951843,92.203773 
	C336.279999,100.333199 324.840637,103.672279 312.522675,105.793869 
	C312.250702,104.247719 312.054718,103.133621 312.127380,101.234993 
	C312.935577,98.840973 313.743774,96.446953 314.570923,94.404510 
	C314.631500,94.378937 314.697418,94.361473 314.751587,94.326096 
	C314.870850,94.248207 314.984222,94.161263 315.075348,94.073479 
M145.369537,90.727493 
	C145.572464,90.508240 145.693161,90.250481 146.078506,89.250732 
	C146.282333,88.493820 146.486160,87.736908 147.097610,86.419876 
	C147.417755,82.425514 147.737900,78.431145 148.058044,74.436783 
	C147.636459,74.397057 147.214859,74.357330 146.793259,74.317612 
	C145.620926,78.558540 144.448593,82.799477 142.962204,87.701828 
	C138.470627,99.421356 132.056396,110.131218 125.369812,120.879959 
	C128.878967,119.021576 131.500076,116.530312 134.035294,113.954491 
	C140.311142,107.578140 143.448486,99.671448 145.369537,90.727493 
M312.923645,219.967422 
	C315.370361,220.408524 317.817078,220.849625 320.611694,221.353439 
	C320.611694,197.441345 320.611694,174.432251 320.611694,151.480835 
	C312.865326,150.299194 312.844727,150.328217 312.819550,157.391754 
	C312.751312,176.522781 312.668762,195.653763 311.780029,214.894974 
	C310.615509,214.927780 309.356812,214.694443 308.311646,215.064407 
	C307.148346,215.476196 306.179474,216.437241 305.125977,217.159195 
	C306.118347,217.771729 307.042175,218.662323 308.120056,218.928146 
	C309.545685,219.279724 311.091949,219.142166 312.923645,219.967422 
M149.328186,212.848343 
	C140.629349,212.599228 133.645065,208.943771 128.272079,202.165787 
	C116.426544,187.222672 115.375397,164.706650 126.114975,148.871201 
	C136.815506,133.093307 155.397217,130.705582 167.929459,145.098389 
	C170.200043,147.706055 172.355972,150.413589 174.783112,153.338013 
	C177.025146,151.958740 179.074448,150.698044 181.683899,149.092743 
	C179.081604,145.618271 176.965775,142.476776 174.535461,139.601044 
	C161.119843,123.726646 140.031464,122.713455 125.249535,137.175476 
	C107.815498,154.232208 105.052124,183.130356 119.562103,204.667053 
	C127.124596,215.891815 137.637848,222.277924 151.697632,220.976776 
	C162.941864,219.936203 170.949295,213.475800 177.576385,204.870880 
	C182.317429,198.714874 182.065460,197.863510 174.142853,195.278320 
	C168.295273,203.866013 161.550812,211.573044 149.328186,212.848343 
M270.407013,159.652298 
	C280.521545,160.598114 286.679474,167.823578 286.795288,179.208603 
	C286.912140,190.696442 286.819763,202.186417 286.819153,213.675446 
	C286.819031,215.943710 286.819122,218.211960 286.819122,220.603241 
	C289.935516,220.603241 292.299774,220.603241 294.961029,220.603241 
	C294.961029,205.238815 295.413300,190.256271 294.806274,175.316772 
	C294.382782,164.894699 288.649902,157.055893 279.052887,152.780518 
	C264.756927,146.411804 247.475540,155.921463 245.342361,172.262527 
	C243.758820,184.392975 244.498322,196.828888 244.246277,209.129623 
	C244.168884,212.906998 244.234253,216.687302 244.234253,220.587555 
	C247.463684,220.587555 249.996933,220.587555 252.937622,220.587555 
	C252.937622,218.361755 252.937653,216.556595 252.937592,214.751450 
	C252.937164,202.429871 252.852554,190.107559 252.961914,177.786957 
	C253.055939,167.193741 259.364594,160.403915 270.407013,159.652298 
M364.582428,159.166824 
	C368.741852,161.007065 373.358551,162.219681 376.951569,164.837357 
	C382.106934,168.593277 382.524200,168.939636 386.807922,163.481262 
	C378.021027,150.031189 361.948700,146.879425 349.067505,156.080414 
	C330.737854,169.173218 330.115540,201.390244 347.926208,215.167191 
	C360.978210,225.263214 380.670319,221.629654 387.051483,207.583481 
	C385.203674,206.208557 383.283112,204.779480 381.027130,203.100845 
	C379.631805,204.655838 378.611664,205.977554 377.408234,207.103378 
	C370.107697,213.933090 360.552917,214.605408 352.960114,208.255020 
	C343.593872,200.421402 342.248901,189.688507 344.384460,178.615814 
	C346.401794,168.155869 352.504181,160.873764 364.582428,159.166824 
M122.873947,87.568092 
	C120.781960,82.005028 119.904526,75.853355 114.724716,71.183098 
	C116.210663,99.708153 101.540565,121.499306 86.065590,143.217224 
	C88.864960,142.978882 91.433586,142.693130 93.382706,141.442154 
	C100.217346,137.055557 107.175659,132.752869 113.470543,127.656830 
	C126.471657,117.131752 130.771805,104.103294 122.873947,87.568092 
M194.827148,142.503479 
	C194.827148,168.537628 194.827148,194.571777 194.827148,220.706360 
	C197.838898,220.706360 200.092865,220.706360 202.559570,220.706360 
	C202.559570,189.417175 202.559570,158.425018 202.559570,127.341324 
	C199.906570,127.341324 197.663040,127.341324 194.826813,127.341324 
	C194.826813,132.277237 194.826813,136.891159 194.827148,142.503479 
M39.743073,181.620026 
	C42.235569,164.095978 53.045715,150.037582 59.916767,134.144531 
	C49.566685,134.798676 44.811302,137.391479 41.614960,146.270950 
	C37.632130,157.335281 34.183998,168.659363 31.544874,180.110931 
	C30.279104,185.603302 31.275290,191.653000 31.553007,197.435593 
	C31.610706,198.636963 33.019672,199.773438 33.805885,200.939819 
	C34.881588,199.854553 36.623512,198.922974 36.915592,197.656921 
	C38.069439,192.655518 38.768581,187.549225 39.743073,181.620026 
M228.834457,170.500473 
	C228.834534,166.177521 228.835388,161.854584 228.834534,157.531631 
	C228.833054,150.085297 228.651276,149.951904 220.370422,151.602310 
	C220.370422,174.531937 220.370422,197.524582 220.370422,220.655548 
	C223.263092,220.655548 225.803223,220.655548 228.834137,220.655548 
	C228.834137,204.016235 228.834137,187.758224 228.834457,170.500473 
M218.252640,133.382645 
	C219.046463,137.440247 221.395966,139.701126 225.595596,138.757339 
	C228.914642,138.011429 230.987076,135.343582 229.830704,132.112640 
	C229.101471,130.075119 226.682831,127.719444 224.640091,127.279381 
	C221.092590,126.515160 218.879532,129.010559 218.252640,133.382645 
M319.446930,138.187241 
	C320.473267,136.155914 322.425323,134.077148 322.324158,132.103622 
	C322.140167,128.513733 319.313995,126.560509 315.711121,127.171356 
	C312.101440,127.783340 310.298157,130.467773 311.027466,134.054199 
	C311.860138,138.148834 314.637848,139.697388 319.446930,138.187241 
z"/>
<path fill="#7BA645" opacity="1.000000" stroke="none" 
	d="
M46.049721,134.048477 
	C46.666855,132.043137 46.973820,129.870697 47.949863,128.058701 
	C56.262405,112.626678 66.250267,98.425011 78.755905,86.032341 
	C88.971298,75.909210 97.686592,64.654175 103.499062,51.355591 
	C103.752739,50.775204 104.223579,50.289738 104.857147,49.381958 
	C105.668961,50.484104 106.534721,51.264450 106.915489,52.235058 
	C113.777832,69.727379 114.286407,86.812355 103.729584,103.266487 
	C102.659683,104.934082 102.504730,107.188713 101.649460,109.531815 
	C101.373749,109.892715 101.150192,109.956268 101.150192,109.956268 
	C99.019051,110.971916 96.520309,111.572151 94.821030,113.075836 
	C87.829849,119.262306 79.913216,123.529350 70.970200,126.163239 
	C62.837315,128.558502 54.820297,131.347198 46.385384,133.989075 
	C46.018562,134.015701 46.049721,134.048477 46.049721,134.048477 
z"/>
<path fill="#70ACC1" opacity="1.000000" stroke="none" 
	d="
M149.741623,212.805862 
	C161.550812,211.573044 168.295273,203.866013 174.142853,195.278320 
	C182.065460,197.863510 182.317429,198.714874 177.576385,204.870880 
	C170.949295,213.475800 162.941864,219.936203 151.697632,220.976776 
	C137.637848,222.277924 127.124596,215.891815 119.562103,204.667053 
	C105.052124,183.130356 107.815498,154.232208 125.249535,137.175476 
	C140.031464,122.713455 161.119843,123.726646 174.535461,139.601044 
	C176.965775,142.476776 179.081604,145.618271 181.683899,149.092743 
	C179.074448,150.698044 177.025146,151.958740 174.783112,153.338013 
	C172.355972,150.413589 170.200043,147.706055 167.929459,145.098389 
	C155.397217,130.705582 136.815506,133.093307 126.114975,148.871201 
	C115.375397,164.706650 116.426544,187.222672 128.272079,202.165787 
	C133.645065,208.943771 140.629349,212.599228 149.741623,212.805862 
z"/>
<path fill="#395595" opacity="1.000000" stroke="none" 
	d="
M131.822525,41.275028 
	C134.045593,43.238525 136.349075,45.119102 138.475952,47.181778 
	C143.865570,52.408703 146.560318,58.687801 146.158936,66.337143 
	C145.605026,76.893463 137.713379,97.379181 130.737793,104.844391 
	C129.992096,101.941048 129.364136,99.445580 128.709869,96.957039 
	C125.103363,83.239670 120.330406,70.021729 112.642143,57.963531 
	C110.422607,54.482426 108.445526,50.753471 106.991592,46.898884 
	C104.688828,40.793903 107.363373,36.802326 113.881622,36.114040 
	C116.176918,35.871670 118.523483,36.114723 121.545837,36.389771 
	C125.437538,38.187275 128.630035,39.731152 131.822525,41.275028 
z"/>
<path fill="#72ADC2" opacity="1.000000" stroke="none" 
	d="
M269.965088,159.651642 
	C259.364594,160.403915 253.055939,167.193741 252.961914,177.786957 
	C252.852554,190.107559 252.937164,202.429871 252.937592,214.751450 
	C252.937653,216.556595 252.937622,218.361755 252.937622,220.587555 
	C249.996933,220.587555 247.463684,220.587555 244.234253,220.587555 
	C244.234253,216.687302 244.168884,212.906998 244.246277,209.129623 
	C244.498322,196.828888 243.758820,184.392975 245.342361,172.262527 
	C247.475540,155.921463 264.756927,146.411804 279.052887,152.780518 
	C288.649902,157.055893 294.382782,164.894699 294.806274,175.316772 
	C295.413300,190.256271 294.961029,205.238815 294.961029,220.603241 
	C292.299774,220.603241 289.935516,220.603241 286.819122,220.603241 
	C286.819122,218.211960 286.819031,215.943710 286.819153,213.675446 
	C286.819763,202.186417 286.912140,190.696442 286.795288,179.208603 
	C286.679474,167.823578 280.521545,160.598114 269.965088,159.651642 
M247.452652,174.637939 
	C245.518036,187.717468 246.753433,216.547150 249.933548,218.754669 
	C249.933548,203.794952 249.940979,189.248779 249.855469,174.703171 
	C249.854309,174.506180 248.679337,174.316086 247.452652,174.637939 
z"/>
<path fill="#70ACC2" opacity="1.000000" stroke="none" 
	d="
M364.181885,159.197845 
	C352.504181,160.873764 346.401794,168.155869 344.384460,178.615814 
	C342.248901,189.688507 343.593872,200.421402 352.960114,208.255020 
	C360.552917,214.605408 370.107697,213.933090 377.408234,207.103378 
	C378.611664,205.977554 379.631805,204.655838 381.027130,203.100845 
	C383.283112,204.779480 385.203674,206.208557 387.051483,207.583481 
	C380.670319,221.629654 360.978210,225.263214 347.926208,215.167191 
	C330.115540,201.390244 330.737854,169.173218 349.067505,156.080414 
	C361.948700,146.879425 378.021027,150.031189 386.807922,163.481262 
	C382.524200,168.939636 382.106934,168.593277 376.951569,164.837357 
	C373.358551,162.219681 368.741852,161.007065 364.181885,159.197845 
z"/>
<path fill="#4E6292" opacity="1.000000" stroke="none" 
	d="
M239.992691,72.962830 
	C237.459351,73.996414 235.000809,75.335648 232.371964,75.978996 
	C229.655685,76.643761 226.664795,77.266853 223.983673,76.805649 
	C213.015076,74.918823 206.003616,79.357857 200.860596,88.957809 
	C197.849930,94.577469 193.164413,99.299850 188.524124,105.349136 
	C219.702652,113.899651 248.286545,108.936241 275.822845,93.092789 
	C276.056976,94.113235 276.484650,95.004555 276.418762,95.857765 
	C276.127502,99.628838 278.418945,101.286530 281.545471,101.093971 
	C287.468719,100.729172 293.355133,99.765198 300.000122,99.038589 
	C301.484070,99.632172 302.224731,100.237328 302.965393,100.842476 
	C296.666992,102.161324 290.418121,103.885246 284.053619,104.663200 
	C279.454895,105.225319 275.052826,103.833344 272.802582,98.762154 
	C268.719604,100.661415 264.948395,102.742729 260.953827,104.220100 
	C237.143753,113.026100 213.022964,116.703773 188.174347,108.414528 
	C186.621735,107.896576 184.544281,108.955627 182.710251,109.276817 
	C178.576843,110.000687 174.431763,111.252937 170.315170,111.166023 
	C168.805145,111.134148 166.147919,107.873108 166.225311,106.186569 
	C166.304886,104.452576 168.926147,101.666931 170.713928,101.428101 
	C174.202652,100.962059 177.880646,102.013039 181.490738,102.307533 
	C183.006149,102.431145 185.299789,102.861717 185.961578,102.076111 
	C192.426407,94.401840 198.620834,86.499786 204.408173,78.075752 
	C191.283264,78.036201 178.669159,78.495903 167.109909,84.417923 
	C162.247299,86.909134 158.912735,90.685905 159.822144,96.834824 
	C159.960159,97.768036 159.316315,98.816872 158.695984,101.004913 
	C155.290268,96.082520 155.508530,91.629730 158.171799,88.624054 
	C161.564697,84.794922 165.897537,80.537445 170.560577,79.348320 
	C181.438324,76.574387 192.765533,75.582977 203.886017,73.722206 
	C205.855209,73.392708 207.705261,72.351082 210.185333,71.487213 
	C211.538544,71.566154 212.316757,71.796188 213.121582,72.425049 
	C214.010620,73.118309 214.871902,73.664154 215.735672,73.668106 
	C223.931503,73.705704 232.198105,74.258087 240.008514,71.238411 
	C240.003952,72.043159 239.998322,72.502998 239.992691,72.962830 
M179.923019,105.162025 
	C176.244049,104.431282 172.423264,102.476700 169.037674,106.183937 
	C173.315704,109.862549 177.427032,109.567230 179.923019,105.162025 
z"/>
<path fill="#6EACC4" opacity="1.000000" stroke="none" 
	d="
M122.984863,87.950684 
	C130.771805,104.103294 126.471657,117.131752 113.470543,127.656830 
	C107.175659,132.752869 100.217346,137.055557 93.382706,141.442154 
	C91.433586,142.693130 88.864960,142.978882 86.065590,143.217224 
	C101.540565,121.499306 116.210663,99.708153 114.724716,71.183098 
	C119.904526,75.853355 120.781960,82.005028 122.984863,87.950684 
z"/>
<path fill="#CA803A" opacity="1.000000" stroke="none" 
	d="
M89.031723,122.130142 
	C89.031715,122.130142 89.265228,121.891609 89.755173,121.825195 
	C90.805405,121.145485 91.365700,120.532188 91.925995,119.918900 
	C91.925995,119.918900 92.001930,119.984222 92.280991,119.950615 
	C93.066727,119.339485 93.573410,118.761971 94.080093,118.184448 
	C94.080086,118.184448 94.069954,118.076286 94.458099,118.077148 
	C95.520996,118.923630 96.195755,119.769257 96.870514,120.614883 
	C96.870514,120.614883 96.821671,120.850418 96.566422,121.029442 
	C96.126938,121.404198 96.025345,121.636147 96.006393,121.904327 
	C82.827026,144.873047 64.330338,163.023331 43.726151,179.445251 
	C44.998718,169.952850 49.718304,161.899338 54.437038,153.266357 
	C55.351658,151.729568 55.761406,150.575165 56.171158,149.420761 
	C56.171162,149.420761 56.168789,149.228714 56.600754,149.132477 
	C58.746899,145.686050 60.469280,142.340012 62.172600,138.984299 
	C63.494495,136.380035 63.764519,132.880554 68.100899,133.065170 
	C69.055763,133.105835 70.077843,131.567810 71.068970,130.756775 
	C71.498367,130.578522 71.927757,130.400284 72.950188,130.424896 
	C76.047577,129.463669 78.551926,128.299591 81.056274,127.135513 
	C81.056274,127.135513 81.337021,126.914452 81.843887,126.918022 
	C83.263809,126.164787 84.176872,125.407982 85.089928,124.651169 
	C85.406120,124.417175 85.722321,124.183182 86.670624,123.906937 
	C87.879059,123.286499 88.455391,122.708321 89.031723,122.130142 
z"/>
<path fill="#70ACC3" opacity="1.000000" stroke="none" 
	d="
M194.826981,142.004272 
	C194.826813,136.891159 194.826813,132.277237 194.826813,127.341324 
	C197.663040,127.341324 199.906570,127.341324 202.559570,127.341324 
	C202.559570,158.425018 202.559570,189.417175 202.559570,220.706360 
	C200.092865,220.706360 197.838898,220.706360 194.827148,220.706360 
	C194.827148,194.571777 194.827148,168.537628 194.826981,142.004272 
z"/>
<path fill="#B22C21" opacity="1.000000" stroke="none" 
	d="
M39.689724,182.050934 
	C38.768581,187.549225 38.069439,192.655518 36.915592,197.656921 
	C36.623512,198.922974 34.881588,199.854553 33.805885,200.939819 
	C33.019672,199.773438 31.610706,198.636963 31.553007,197.435593 
	C31.275290,191.653000 30.279104,185.603302 31.544874,180.110931 
	C34.183998,168.659363 37.632130,157.335281 41.614960,146.270950 
	C44.811302,137.391479 49.566685,134.798676 59.916767,134.144531 
	C53.045715,150.037582 42.235569,164.095978 39.689724,182.050934 
z"/>
<path fill="#75AFC6" opacity="1.000000" stroke="none" 
	d="
M228.834290,171.000336 
	C228.834137,187.758224 228.834137,204.016235 228.834137,220.655548 
	C225.803223,220.655548 223.263092,220.655548 220.370422,220.655548 
	C220.370422,197.524582 220.370422,174.531937 220.370422,151.602310 
	C228.651276,149.951904 228.833054,150.085297 228.834534,157.531631 
	C228.835388,161.854584 228.834534,166.177521 228.834290,171.000336 
z"/>
<path fill="#536693" opacity="1.000000" stroke="none" 
	d="
M311.858765,102.019531 
	C312.054718,103.133621 312.250702,104.247719 312.522675,105.793869 
	C324.840637,103.672279 336.279999,100.333199 345.951843,92.203773 
	C348.258148,90.265251 351.320312,88.922195 354.256256,88.172752 
	C355.596466,87.830658 358.688263,89.420372 358.835876,90.443939 
	C359.082916,92.157043 358.078247,95.174095 356.760742,95.762573 
	C353.737000,97.113174 350.207214,97.330948 346.384735,98.110130 
	C344.944336,101.746017 345.783813,103.120392 350.749054,103.171837 
	C361.465485,103.282867 371.442749,100.254333 381.015869,95.676575 
	C381.916077,95.246117 382.730530,94.486771 383.664093,94.317574 
	C384.602722,94.147453 385.640472,94.523964 386.634766,94.660934 
	C386.113861,95.547737 385.789581,96.701157 385.028564,97.262268 
	C383.706268,98.237228 382.145538,98.916138 380.630035,99.597252 
	C371.277344,103.800621 361.572754,106.570946 351.230774,106.678490 
	C346.453522,106.728165 342.597290,105.446579 341.896362,100.723946 
	C332.506317,103.514572 323.160004,106.213692 313.893219,109.162682 
	C312.922882,109.471466 311.871521,111.226074 311.808075,112.362907 
	C311.623260,115.674515 312.009277,119.013596 311.988159,122.340736 
	C311.978912,123.790466 311.522369,125.237366 311.268951,126.685547 
	C310.604309,126.695740 309.939667,126.705933 309.275024,126.716125 
	C308.775970,121.319687 308.276947,115.923241 307.721252,109.914185 
	C304.974182,109.914185 302.170258,109.914185 299.366333,109.914185 
	C299.245331,109.313332 299.124329,108.712471 299.003326,108.111618 
	C300.778778,107.638077 302.540558,106.841751 304.332886,106.765678 
	C307.110779,106.647774 308.789917,105.749161 309.182617,102.491028 
	C310.329865,102.157150 311.094299,102.088348 311.858765,102.019531 
z"/>
<path fill="#6FADC3" opacity="1.000000" stroke="none" 
	d="
M312.591888,214.784760 
	C312.668762,195.653763 312.751312,176.522781 312.819550,157.391754 
	C312.844727,150.328217 312.865326,150.299194 320.611694,151.480835 
	C320.611694,174.432251 320.611694,197.441345 320.611694,221.353439 
	C317.817078,220.849625 315.370361,220.408524 312.853027,219.152756 
	C312.718872,217.153641 312.655365,215.969208 312.591888,214.784760 
z"/>
<path fill="#71337B" opacity="1.000000" stroke="none" 
	d="
M110.002373,31.004894 
	C114.453575,21.591764 124.235847,19.385660 135.012741,25.666992 
	C135.309692,25.902475 135.203918,25.828482 135.203918,25.828482 
	C135.621826,26.075701 136.039719,26.322920 136.903763,27.113735 
	C139.238800,27.586468 141.127701,27.515600 143.016602,27.444733 
	C143.450928,27.305548 143.885239,27.166361 144.717621,27.358227 
	C146.739517,27.797142 148.363373,27.905005 149.953110,28.365662 
	C148.566818,30.540646 147.176773,32.336243 145.872833,34.192322 
	C144.501114,36.144905 144.116013,38.659412 144.883942,39.969460 
	C144.899887,40.445473 144.915848,40.921490 144.642059,41.895554 
	C143.574677,42.606606 142.797043,42.819607 141.925232,42.643272 
	C140.070190,42.111855 138.309341,41.969772 136.548492,41.827690 
	C136.548492,41.827690 136.306061,41.705368 136.451202,41.251511 
	C134.680542,39.574684 132.764771,38.351715 130.912598,37.110565 
	C130.976227,37.092388 130.876602,37.179497 130.878494,36.805466 
	C129.231064,33.464611 127.213364,31.699339 123.863220,34.280041 
	C123.063095,34.070152 122.262970,33.860264 120.912811,33.236042 
	C118.916458,31.849834 117.479546,29.182381 116.007828,32.797585 
	C115.553772,32.873093 115.099724,32.948601 114.143501,32.670921 
	C112.428345,31.880125 111.215363,31.442509 110.002373,31.004894 
z"/>
<path fill="#556792" opacity="1.000000" stroke="none" 
	d="
M240.224487,73.024353 
	C239.998322,72.502998 240.003952,72.043159 240.290802,71.065170 
	C243.247223,68.343544 246.358780,66.495560 248.504974,63.861130 
	C252.712372,58.696579 250.435608,53.781143 243.814575,52.932159 
	C238.088516,52.197937 232.670105,53.384224 228.367752,57.118839 
	C223.004562,61.774300 218.162216,67.029816 213.094971,72.026230 
	C212.316757,71.796188 211.538544,71.566154 210.479095,71.209686 
	C216.186859,62.990097 222.534668,54.982391 232.222839,51.414700 
	C236.772507,49.739273 242.378647,49.604622 247.230927,50.416271 
	C253.248871,51.422901 255.425308,57.298603 252.830475,62.910843 
	C250.357742,68.259026 246.046356,71.475784 240.224487,73.024353 
z"/>
<path fill="#D8D945" opacity="1.000000" stroke="none" 
	d="
M146.689972,86.979996 
	C146.486160,87.736908 146.282333,88.493820 145.710526,89.721718 
	C145.112259,90.432251 145.022552,90.716263 145.073441,91.044746 
	C143.448486,99.671448 140.311142,107.578140 134.035294,113.954491 
	C131.500076,116.530312 128.878967,119.021576 125.369812,120.879959 
	C132.056396,110.131218 138.470627,99.421356 143.382065,87.246735 
	C144.764603,86.854424 145.727295,86.917206 146.689972,86.979996 
z"/>
<path fill="#556393" opacity="1.000000" stroke="none" 
	d="
M310.309998,93.000450 
	C310.778076,91.210693 311.246185,89.420944 312.102661,87.508011 
	C312.992706,88.258797 313.494415,89.132759 314.134399,90.297150 
	C321.991852,87.616898 328.269897,79.343719 327.325653,71.590050 
	C324.144562,73.980431 321.571075,75.914261 318.961548,77.571930 
	C318.399780,76.868240 317.873993,76.440720 317.348236,76.013199 
	C319.482697,73.999710 321.331146,71.475838 323.814178,70.084396 
	C328.283569,67.579849 332.313446,70.298157 331.079132,75.192421 
	C330.076843,79.166786 327.865234,83.119476 325.259338,86.325287 
	C322.726807,89.440842 319.010223,91.593925 315.385193,93.802414 
	C313.407867,93.290276 311.858948,93.145363 310.309998,93.000450 
z"/>
<path fill="#72417B" opacity="1.000000" stroke="none" 
	d="
M145.081055,39.690460 
	C144.116013,38.659412 144.501114,36.144905 145.872833,34.192322 
	C147.176773,32.336243 148.566818,30.540646 149.960129,28.358593 
	C150.001266,27.998734 150.013641,27.986330 150.406555,27.992329 
	C151.789352,27.455742 152.779236,26.913153 153.769104,26.370567 
	C152.702133,25.837885 151.635147,25.305201 150.568176,24.772518 
	C157.362122,21.596859 163.908096,17.601852 171.931213,18.672119 
	C171.981262,19.021828 171.994095,19.057920 171.994095,19.057922 
	C166.222580,22.145344 160.056549,24.689892 154.811432,28.501657 
	C151.002487,31.269709 148.411972,35.714371 145.081055,39.690460 
z"/>
<path fill="#77ADC4" opacity="1.000000" stroke="none" 
	d="
M218.251862,133.001465 
	C218.879532,129.010559 221.092590,126.515160 224.640091,127.279381 
	C226.682831,127.719444 229.101471,130.075119 229.830704,132.112640 
	C230.987076,135.343582 228.914642,138.011429 225.595596,138.757339 
	C221.395966,139.701126 219.046463,137.440247 218.251862,133.001465 
z"/>
<path fill="#74ABC2" opacity="1.000000" stroke="none" 
	d="
M319.101990,138.349304 
	C314.637848,139.697388 311.860138,138.148834 311.027466,134.054199 
	C310.298157,130.467773 312.101440,127.783340 315.711121,127.171356 
	C319.313995,126.560509 322.140167,128.513733 322.324158,132.103622 
	C322.425323,134.077148 320.473267,136.155914 319.101990,138.349304 
z"/>
<path fill="#C4925F" opacity="1.000000" stroke="none" 
	d="
M70.721497,130.661148 
	C70.077843,131.567810 69.055763,133.105835 68.100899,133.065170 
	C63.764519,132.880554 63.494495,136.380035 62.172600,138.984299 
	C60.469280,142.340012 58.746899,145.686050 56.680286,149.078644 
	C58.623791,144.163849 60.511044,138.947998 63.407707,134.371002 
	C64.644997,132.415955 67.987907,131.793503 70.721497,130.661148 
z"/>
<path fill="#4E6292" opacity="1.000000" stroke="none" 
	d="
M310.130096,93.234879 
	C311.858948,93.145363 313.407867,93.290276 315.030457,93.770767 
	C315.104065,94.106354 315.075348,94.073479 314.994354,94.061920 
	C314.913361,94.050362 314.551971,94.052925 314.551971,94.052933 
	C313.743774,96.446953 312.935577,98.840973 311.993073,101.627266 
	C311.094299,102.088348 310.329865,102.157150 309.334717,102.133606 
	C309.083466,101.222847 309.062866,100.404442 309.030518,98.794891 
	C309.002350,96.982170 308.985870,95.960602 308.969421,94.939034 
	C309.296356,94.449127 309.623260,93.959221 310.130096,93.234879 
z"/>
<path fill="#DBDD7F" opacity="1.000000" stroke="none" 
	d="
M146.893799,86.699936 
	C145.727295,86.917206 144.764603,86.854424 143.539093,86.916023 
	C144.448593,82.799477 145.620926,78.558540 146.793259,74.317612 
	C147.214859,74.357330 147.636459,74.397057 148.058044,74.436783 
	C147.737900,78.431145 147.417755,82.425514 146.893799,86.699936 
z"/>
<path fill="#4E6292" opacity="1.000000" stroke="none" 
	d="
M313.996094,90.006721 
	C313.494415,89.132759 312.992706,88.258797 312.246033,87.192886 
	C313.611664,83.504692 315.222260,80.008438 317.090576,76.262695 
	C317.873993,76.440720 318.399780,76.868240 318.679626,77.801743 
	C316.954529,82.207382 315.475311,86.107048 313.996094,90.006721 
z"/>
<path fill="#C1D4E3" opacity="1.000000" stroke="none" 
	d="
M312.185974,214.839874 
	C312.655365,215.969208 312.718872,217.153641 312.684387,218.776474 
	C311.091949,219.142166 309.545685,219.279724 308.120056,218.928146 
	C307.042175,218.662323 306.118347,217.771729 305.125977,217.159180 
	C306.179474,216.437241 307.148346,215.476196 308.311646,215.064407 
	C309.356812,214.694443 310.615509,214.927780 312.185974,214.839874 
z"/>
<path fill="#C4925F" opacity="1.000000" stroke="none" 
	d="
M97.148438,120.450348 
	C96.195755,119.769257 95.520996,118.923630 94.512100,118.082901 
	C96.463211,115.607933 98.748451,113.128067 101.091949,110.302231 
	C101.150192,109.956268 101.373749,109.892715 101.489319,109.903641 
	C100.212059,113.371643 98.819214,116.828735 97.148438,120.450348 
z"/>
<path fill="#DCD9ED" opacity="1.000000" stroke="none" 
	d="
M131.979477,41.007736 
	C128.630035,39.731152 125.437538,38.187275 121.983734,36.407310 
	C122.355286,35.948681 122.988144,35.726143 124.191010,35.234188 
	C126.799545,35.703011 128.838074,36.441254 130.876602,37.179497 
	C130.876602,37.179497 130.976227,37.092388 131.070923,37.372803 
	C132.038864,38.446449 132.912094,39.239685 133.785324,40.032917 
	C133.235687,40.268757 132.686066,40.504601 131.979477,41.007736 
z"/>
<path fill="#536693" opacity="1.000000" stroke="none" 
	d="
M308.616364,95.010513 
	C308.985870,95.960602 309.002350,96.982170 309.032135,98.384354 
	C307.254700,99.437874 305.463959,100.110779 303.319275,100.813080 
	C302.224731,100.237328 301.484070,99.632172 300.409760,99.022385 
	C302.805206,97.705833 305.534241,96.393906 308.616364,95.010513 
z"/>
<path fill="#704274" opacity="1.000000" stroke="none" 
	d="
M136.718903,42.067963 
	C138.309341,41.969772 140.070190,42.111855 141.919632,43.041733 
	C142.000549,44.895691 141.992889,45.961864 141.985214,47.028038 
	C140.286575,45.454769 138.587952,43.881504 136.718903,42.067963 
z"/>
<path fill="#704274" opacity="1.000000" stroke="none" 
	d="
M130.878494,36.805466 
	C128.838074,36.441254 126.799545,35.703011 124.390831,34.963043 
	C124.020645,34.961315 123.890938,34.632309 123.877075,34.456177 
	C127.213364,31.699339 129.231064,33.464611 130.878494,36.805466 
z"/>
<path fill="#72417B" opacity="1.000000" stroke="none" 
	d="
M149.994247,28.005802 
	C148.363373,27.905005 146.739517,27.797142 145.061798,27.366896 
	C146.440674,26.388153 147.873398,25.731792 149.652573,25.426708 
	C150.003876,26.514101 150.008759,27.250216 150.013641,27.986330 
	C150.013641,27.986330 150.001266,27.998734 149.994247,28.005802 
z"/>
<path fill="#704274" opacity="1.000000" stroke="none" 
	d="
M109.742706,31.267515 
	C111.215363,31.442509 112.428345,31.880125 113.801262,32.613541 
	C112.495377,32.362244 109.299583,37.432259 109.742706,31.267515 
z"/>
<path fill="#C4925F" opacity="1.000000" stroke="none" 
	d="
M80.686386,127.143402 
	C78.551926,128.299591 76.047577,129.463669 73.302925,130.418976 
	C75.480576,129.190567 77.898537,128.170914 80.686386,127.143402 
z"/>
<path fill="#704274" opacity="1.000000" stroke="none" 
	d="
M133.952789,40.270798 
	C132.912094,39.239685 132.038864,38.446449 131.007309,37.390980 
	C132.764771,38.351715 134.680542,39.574684 136.377914,41.137207 
	C135.479752,41.154068 134.800018,40.831371 133.952789,40.270798 
z"/>
<path fill="#71337B" opacity="1.000000" stroke="none" 
	d="
M150.406555,27.992329 
	C150.008759,27.250216 150.003876,26.514101 149.996811,25.409840 
	C149.994614,25.041695 150.225403,24.787245 150.396790,24.779881 
	C151.635147,25.305201 152.702133,25.837885 153.769104,26.370567 
	C152.779236,26.913153 151.789352,27.455742 150.406555,27.992329 
z"/>
<path fill="#72417B" opacity="1.000000" stroke="none" 
	d="
M141.990387,47.014400 
	C141.992889,45.961864 142.000549,44.895691 142.013824,43.431065 
	C142.797043,42.819607 143.574677,42.606606 144.543488,42.240669 
	C144.811905,43.455696 144.889114,44.823658 144.534943,46.596603 
	C143.393204,47.006023 142.682846,47.010456 141.972473,47.014893 
	C141.972473,47.014893 141.995544,47.000767 141.990387,47.014400 
z"/>
<path fill="#72417B" opacity="1.000000" stroke="none" 
	d="
M142.587067,27.405903 
	C141.127701,27.515600 139.238800,27.586468 137.181076,27.350655 
	C138.727356,27.151674 140.442444,27.259373 142.587067,27.405903 
z"/>
<path fill="#704274" opacity="1.000000" stroke="none" 
	d="
M116.346664,32.889465 
	C117.479546,29.182381 118.916458,31.849834 120.561867,33.017281 
	C119.402473,33.135685 118.043983,33.058514 116.346664,32.889465 
z"/>
<path fill="#704274" opacity="1.000000" stroke="none" 
	d="
M142.091690,47.317516 
	C142.682846,47.010456 143.393204,47.006023 144.458710,47.003330 
	C144.905289,47.781269 144.996719,48.557465 145.180069,50.113777 
	C143.807770,48.961250 143.009338,48.290695 142.091690,47.317516 
z"/>
<path fill="#C4925F" opacity="1.000000" stroke="none" 
	d="
M84.790695,124.666931 
	C84.176872,125.407982 83.263809,126.164787 82.019913,126.887444 
	C82.623207,126.129761 83.557335,125.406227 84.790695,124.666931 
z"/>
<path fill="#C4925F" opacity="1.000000" stroke="none" 
	d="
M55.931877,149.586578 
	C55.761406,150.575165 55.351658,151.729568 54.633362,152.968994 
	C54.780739,151.953476 55.236668,150.852936 55.931877,149.586578 
z"/>
<path fill="#C4925F" opacity="1.000000" stroke="none" 
	d="
M88.721474,122.144928 
	C88.455391,122.708321 87.879059,123.286499 86.956955,123.822998 
	C87.211189,123.240791 87.811211,122.700249 88.721474,122.144928 
z"/>
<path fill="#C4925F" opacity="1.000000" stroke="none" 
	d="
M93.787369,118.230301 
	C93.573410,118.761971 93.066727,119.339485 92.243950,119.913940 
	C92.450119,119.365967 92.972382,118.821060 93.787369,118.230301 
z"/>
<path fill="#C4925F" opacity="1.000000" stroke="none" 
	d="
M91.617363,119.976257 
	C91.365700,120.532188 90.805405,121.145485 89.917587,121.786766 
	C90.162949,121.221039 90.735840,120.627319 91.617363,119.976257 
z"/>
<path fill="#556393" opacity="1.000000" stroke="none" 
	d="
M314.561462,94.228714 
	C314.551971,94.052925 314.913361,94.050362 315.006653,94.064186 
	C314.984222,94.161263 314.870850,94.248207 314.751587,94.326096 
	C314.697418,94.361473 314.631500,94.378937 314.561462,94.228714 
z"/>
<path fill="#DBDD7F" opacity="1.000000" stroke="none" 
	d="
M145.221497,90.886124 
	C145.022552,90.716263 145.112259,90.432251 145.537094,90.073456 
	C145.693161,90.250481 145.572464,90.508240 145.221497,90.886124 
z"/>
<path fill="#7BA645" opacity="1.000000" stroke="none" 
	d="
M46.005474,133.997589 
	C45.901810,133.985504 45.811234,133.991531 45.885193,134.023010 
	C46.049721,134.048477 46.018562,134.015701 46.005474,133.997589 
z"/>
<path fill="#C4925F" opacity="1.000000" stroke="none" 
	d="
M96.188797,121.813477 
	C96.025345,121.636147 96.126938,121.404198 96.466484,121.096344 
	C96.682297,121.279274 96.598770,121.525406 96.188797,121.813477 
z"/>
<path fill="#72417B" opacity="1.000000" stroke="none" 
	d="
M135.266083,25.823635 
	C135.203918,25.828482 135.309692,25.902475 135.333466,25.927845 
	C135.357239,25.953215 135.328247,25.818789 135.266083,25.823635 
z"/>
<path fill="#72417B" opacity="1.000000" stroke="none" 
	d="
M171.982666,19.016964 
	C171.984055,19.012102 172.091858,19.204657 172.091858,19.204657 
	C172.091858,19.204657 172.112122,18.948023 172.053101,19.002972 
	C171.994095,19.057920 171.981262,19.021828 171.982666,19.016964 
z"/>
<path fill="#63ACCA" opacity="1.000000" stroke="none" 
	d="
M247.752441,174.380356 
	C248.679337,174.316086 249.854309,174.506180 249.855469,174.703171 
	C249.940979,189.248779 249.933548,203.794952 249.933548,218.754669 
	C246.753433,216.547150 245.518036,187.717468 247.752441,174.380356 
z"/>
<path fill="#F0F1F6" opacity="1.000000" stroke="none" 
	d="
M213.121582,72.425049 
	C218.162216,67.029816 223.004562,61.774300 228.367752,57.118839 
	C232.670105,53.384224 238.088516,52.197937 243.814575,52.932159 
	C250.435608,53.781143 252.712372,58.696579 248.504974,63.861130 
	C246.358780,66.495560 243.247223,68.343544 240.289734,70.720261 
	C232.198105,74.258087 223.931503,73.705704 215.735672,73.668106 
	C214.871902,73.664154 214.010620,73.118309 213.121582,72.425049 
z"/>
<path fill="#DDE4F3" opacity="1.000000" stroke="none" 
	d="
M180.239456,105.373558 
	C177.427032,109.567230 173.315704,109.862549 169.037674,106.183937 
	C172.423264,102.476700 176.244049,104.431282 180.239456,105.373558 
z"/>
<path fill="#E5E9F4" opacity="1.000000" stroke="none" 
	d="
M314.134399,90.297150 
	C315.475311,86.107048 316.954529,82.207382 318.715637,78.077896 
	C321.571075,75.914261 324.144562,73.980431 327.325653,71.590050 
	C328.269897,79.343719 321.991852,87.616898 314.134399,90.297150 
z"/>
</svg>